<svg id="visual" viewBox="0 0 900 600" width="900" height="600" xmlns="http://www.w3.org/2000/svg" xmlns:xlink="http://www.w3.org/1999/xlink" version="1.1"><rect x="0" y="0" width="900" height="600" fill="#001220"></rect><path d="M0 213L21.5 213.5C43 214 86 215 128.8 208.2C171.7 201.3 214.3 186.7 257.2 191.2C300 195.7 343 219.3 385.8 230.3C428.7 241.3 471.3 239.7 514.2 227.2C557 214.7 600 191.3 642.8 193C685.7 194.7 728.3 221.3 771.2 223.5C814 225.7 857 203.3 878.5 192.2L900 181L900 0L878.5 0C857 0 814 0 771.2 0C728.3 0 685.7 0 642.8 0C600 0 557 0 514.2 0C471.3 0 428.7 0 385.8 0C343 0 300 0 257.2 0C214.3 0 171.7 0 128.8 0C86 0 43 0 21.5 0L0 0Z" fill="#12107c"></path><path d="M0 135L21.5 135.5C43 136 86 137 128.8 144.5C171.7 152 214.3 166 257.2 167.2C300 168.3 343 156.7 385.8 150.2C428.7 143.7 471.3 142.3 514.2 141.3C557 140.3 600 139.7 642.8 147.8C685.7 156 728.3 173 771.2 181.5C814 190 857 190 878.5 190L900 190L900 0L878.5 0C857 0 814 0 771.2 0C728.3 0 685.7 0 642.8 0C600 0 557 0 514.2 0C471.3 0 428.7 0 385.8 0C343 0 300 0 257.2 0C214.3 0 171.7 0 128.8 0C86 0 43 0 21.5 0L0 0Z" fill="#151289"></path><path d="M0 127L21.5 120.5C43 114 86 101 128.8 99C171.7 97 214.3 106 257.2 112C300 118 343 121 385.8 119.7C428.7 118.3 471.3 112.7 514.2 113.5C557 114.3 600 121.7 642.8 118.5C685.7 115.3 728.3 101.7 771.2 97.7C814 93.7 857 99.3 878.5 102.2L900 105L900 0L878.5 0C857 0 814 0 771.2 0C728.3 0 685.7 0 642.8 0C600 0 557 0 514.2 0C471.3 0 428.7 0 385.8 0C343 0 300 0 257.2 0C214.3 0 171.7 0 128.8 0C86 0 43 0 21.5 0L0 0Z" fill="#181497"></path><path d="M0 95L21.5 90.3C43 85.7 86 76.3 128.8 72.8C171.7 69.3 214.3 71.7 257.2 73C300 74.3 343 74.7 385.8 74.3C428.7 74 471.3 73 514.2 76.5C557 80 600 88 642.8 89C685.7 90 728.3 84 771.2 84.3C814 84.7 857 91.3 878.5 94.7L900 98L900 0L878.5 0C857 0 814 0 771.2 0C728.3 0 685.7 0 642.8 0C600 0 557 0 514.2 0C471.3 0 428.7 0 385.8 0C343 0 300 0 257.2 0C214.3 0 171.7 0 128.8 0C86 0 43 0 21.5 0L0 0Z" fill="#1b16a5"></path><path d="M0 37L21.5 41.3C43 45.7 86 54.3 128.8 57.8C171.7 61.3 214.3 59.7 257.2 59.7C300 59.7 343 61.3 385.8 60.7C428.7 60 471.3 57 514.2 52.8C557 48.7 600 43.3 642.8 39C685.7 34.7 728.3 31.3 771.2 32C814 32.7 857 37.3 878.5 39.7L900 42L900 0L878.5 0C857 0 814 0 771.2 0C728.3 0 685.7 0 642.8 0C600 0 557 0 514.2 0C471.3 0 428.7 0 385.8 0C343 0 300 0 257.2 0C214.3 0 171.7 0 128.8 0C86 0 43 0 21.5 0L0 0Z" fill="#1f18b3"></path></svg>