<svg id="visual" viewBox="0 0 900 600" width="900" height="600" xmlns="http://www.w3.org/2000/svg" xmlns:xlink="http://www.w3.org/1999/xlink" version="1.1"><path d="M0 49L25 48C50 47 100 45 150 44C200 43 250 43 300 43C350 43 400 43 450 45C500 47 550 51 600 52C650 53 700 51 750 51C800 51 850 53 875 54L900 55L900 0L875 0C850 0 800 0 750 0C700 0 650 0 600 0C550 0 500 0 450 0C400 0 350 0 300 0C250 0 200 0 150 0C100 0 50 0 25 0L0 0Z" fill="#20319f"></path><path d="M0 79L25 92C50 105 100 131 150 131C200 131 250 105 300 95C350 85 400 91 450 98C500 105 550 113 600 124C650 135 700 149 750 150C800 151 850 139 875 133L900 127L900 53L875 52C850 51 800 49 750 49C700 49 650 51 600 50C550 49 500 45 450 43C400 41 350 41 300 41C250 41 200 41 150 42C100 43 50 45 25 46L0 47Z" fill="#1d2b96"></path><path d="M0 163L25 178C50 193 100 223 150 225C200 227 250 201 300 181C350 161 400 147 450 152C500 157 550 181 600 191C650 201 700 197 750 199C800 201 850 209 875 213L900 217L900 125L875 131C850 137 800 149 750 148C700 147 650 133 600 122C550 111 500 103 450 96C400 89 350 83 300 93C250 103 200 129 150 129C100 129 50 103 25 90L0 77Z" fill="#1a268e"></path><path d="M0 187L25 205C50 223 100 259 150 266C200 273 250 251 300 235C350 219 400 209 450 212C500 215 550 231 600 240C650 249 700 251 750 253C800 255 850 257 875 258L900 259L900 215L875 211C850 207 800 199 750 197C700 195 650 199 600 189C550 179 500 155 450 150C400 145 350 159 300 179C250 199 200 225 150 223C100 221 50 191 25 176L0 161Z" fill="#172085"></path><path d="M0 193L25 215C50 237 100 281 150 291C200 301 250 277 300 259C350 241 400 229 450 231C500 233 550 249 600 263C650 277 700 289 750 290C800 291 850 281 875 276L900 271L900 257L875 256C850 255 800 253 750 251C700 249 650 247 600 238C550 229 500 213 450 210C400 207 350 217 300 233C250 249 200 271 150 264C100 257 50 221 25 203L0 185Z" fill="#141b7d"></path><path d="M0 241L25 258C50 275 100 309 150 316C200 323 250 303 300 287C350 271 400 259 450 264C500 269 550 291 600 305C650 319 700 325 750 321C800 317 850 303 875 296L900 289L900 269L875 274C850 279 800 289 750 288C700 287 650 275 600 261C550 247 500 231 450 229C400 227 350 239 300 257C250 275 200 299 150 289C100 279 50 235 25 213L0 191Z" fill="#101575"></path><path d="M0 433L25 433C50 433 100 433 150 413C200 393 250 353 300 337C350 321 400 329 450 339C500 349 550 361 600 371C650 381 700 389 750 398C800 407 850 417 875 422L900 427L900 287L875 294C850 301 800 315 750 319C700 323 650 317 600 303C550 289 500 267 450 262C400 257 350 269 300 285C250 301 200 321 150 314C100 307 50 273 25 256L0 239Z" fill="#0c106d"></path><path d="M0 553L25 547C50 541 100 529 150 523C200 517 250 517 300 520C350 523 400 529 450 533C500 537 550 539 600 534C650 529 700 517 750 509C800 501 850 497 875 495L900 493L900 425L875 420C850 415 800 405 750 396C700 387 650 379 600 369C550 359 500 347 450 337C400 327 350 319 300 335C250 351 200 391 150 411C100 431 50 431 25 431L0 431Z" fill="#070a65"></path><path d="M0 589L25 586C50 583 100 577 150 573C200 569 250 567 300 568C350 569 400 573 450 572C500 571 550 565 600 561C650 557 700 555 750 553C800 551 850 549 875 548L900 547L900 491L875 493C850 495 800 499 750 507C700 515 650 527 600 532C550 537 500 535 450 531C400 527 350 521 300 518C250 515 200 515 150 521C100 527 50 539 25 545L0 551Z" fill="#03055d"></path><path d="M0 601L25 601C50 601 100 601 150 601C200 601 250 601 300 601C350 601 400 601 450 601C500 601 550 601 600 601C650 601 700 601 750 601C800 601 850 601 875 601L900 601L900 545L875 546C850 547 800 549 750 551C700 553 650 555 600 559C550 563 500 569 450 570C400 571 350 567 300 566C250 565 200 567 150 571C100 575 50 581 25 584L0 587Z" fill="#000055"></path></svg>